PathFileType	4	(X/Y/Z)	/Users/niels/Desktop/University/Third Semester/Perception and Action/Exam/Gymnastics Motion Tracking/Code for Gym Tracking/Analyzed Data/Webcam_Backflip/id13_1_baseline_Sports2D/id13_1_baseline_Sports2D_px_person00.trc
DataRate	CameraRate	NumFrames	NumMarkers	Units	OrigDataRate	OrigDataStartFrame	OrigNumFrames
29.702970297029704	29.702970297029704	12	22	m	29.702970297029704	12	101
Frame#	Time	Hip			RHip			RKnee			RAnkle			RBigToe			RSmallToe			RHeel			LHip			LKnee			LAnkle			LBigToe			LSmallToe			LHeel			Neck			Head			Nose			RShoulder			RElbow			RWrist			LShoulder			LElbow			LWrist		
		X1	Y1	Z1	X2	Y2	Z2	X3	Y3	Z3	X4	Y4	Z4	X5	Y5	Z5	X6	Y6	Z6	X7	Y7	Z7	X8	Y8	Z8	X9	Y9	Z9	X10	Y10	Z10	X11	Y11	Z11	X12	Y12	Z12	X13	Y13	Z13	X14	Y14	Z14	X15	Y15	Z15	X16	Y16	Z16	X17	Y17	Z17	X18	Y18	Z18	X19	Y19	Z19	X20	Y20	Z20	X21	Y21	Z21	X22	Y22	Z22
12	0.40399999999999997	0.9787681370230786	-0.6397934017201697	0.0	0.9290689473510203	-0.654742275727613	0.0	0.9285771158157503	-0.8562498424602039	0.0	0.9248004231785313	-1.0322497622026245	0.0	0.9261385778638562	-1.0829335087431606	0.0	0.8955225210969586	-1.0755002027557394	0.0	0.925164525928081	-1.0497953498035437	0.0	1.023278441761581	-0.6512254446410777	0.0	1.0310621321782292	-0.8554567925910812	0.0	1.0388430696804707	-1.0357972105176454	0.0	1.0349047283068082	-1.0846295144182911	0.0	1.0687250121327636	-1.0768204747239754	0.0	1.033504339534912	-1.052894378239551	0.0	0.9627951332715715	-0.3527213774425631	0.0	0.960636022798469	-0.22381997406490314	0.0	0.9667090191005792	-0.2895289667610752	0.0	0.8637838225179559	-0.3881449987635789	0.0	0.7397326543125539	-0.37768883372168033	0.0	0.6152291553264888	-0.333781962207798	0.0	1.0558721945770655	-0.37984810214988174	0.0	1.1877802245960412	-0.35588274001213	0.0	1.3114868538448456	-0.3144040416643012	0.0
13	0.43766666666666665	0.9786178523692999	-0.6397855785773826	0.0	0.9291569638024284	-0.6544489896607341	0.0	0.9288884039110599	-0.8568303260511443	0.0	0.9246838718742735	-1.032948602686103	0.0	0.92697209598962	-1.082907498065812	0.0	0.89610919770334	-1.0758003309677693	0.0	0.9248436093993453	-1.0498302462900493	0.0	1.02317605584264	-0.6509564569319193	0.0	1.0309804060945749	-0.8555929762952714	0.0	1.0388722042874243	-1.0354116919731826	0.0	1.0352948709649035	-1.0845051415008404	0.0	1.0688196910805494	-1.0767314734086186	0.0	1.033842177603211	-1.0524963688796052	0.0	0.9628221708910512	-0.3528465153393553	0.0	0.9608215007048764	-0.22391698857868736	0.0	0.9669176284971278	-0.29030265992638943	0.0	0.8640239402373245	-0.38781000632842094	0.0	0.7399686460103116	-0.3778457490018375	0.0	0.6144990405704107	-0.3325299386001465	0.0	1.0557896172726027	-0.37968741472605144	0.0	1.1877335438164882	-0.3554106592341355	0.0	1.3114710745268818	-0.31261341696959044	0.0
14	0.47133333333333327	0.9782253572456553	-0.6396219367180755	0.0	0.9291456139781807	-0.6537368094795333	0.0	0.9290325705870555	-0.8572871634343868	0.0	0.9245141291660406	-1.0338872145940659	0.0	0.9280388467238488	-1.0829724445771938	0.0	0.8967768884232171	-1.0763731058173458	0.0	0.9248054958623586	-1.0498677449956622	0.0	1.0230377137371944	-0.6503947072976124	0.0	1.0308930350368086	-0.8555445492148418	0.0	1.03896537576511	-1.035095469597715	0.0	1.0353806297555934	-1.0848886982721597	0.0	1.0687950778184498	-1.0770299285371159	0.0	1.0342044722898733	-1.0518414830666662	0.0	0.962736381975482	-0.35309903370895407	0.0	0.9612435501391298	-0.22404042128303547	0.0	0.9672328424925616	-0.29112670780918437	0.0	0.8646219828009464	-0.38720142148590486	0.0	0.7405438382370396	-0.3769778875023923	0.0	0.6149032706215742	-0.3282928121603629	0.0	1.0552127126206128	-0.3796008335053287	0.0	1.187333774687168	-0.35395939271356164	0.0	1.3106238617187693	-0.30750408947618174	0.0
15	0.505	0.9776866407372715	-0.6392926130492522	0.0	0.9289571376164107	-0.6524526403381995	0.0	0.928933109670342	-0.8571897082901219	0.0	0.9243373775328367	-1.0348442170958438	0.0	0.9289439263068868	-1.0831032173613853	0.0	0.8973001649819623	-1.077024053247644	0.0	0.9251997944664588	-1.0497626358067698	0.0	1.0228182424220118	-0.6492916393673944	0.0	1.0308158743218903	-0.8550468815501715	0.0	1.039108816706286	-1.0348873297819137	0.0	1.0347951722479847	-1.0853724152113402	0.0	1.0683756740001384	-1.0773937668058469	0.0	1.0346805980508607	-1.050926475908306	0.0	0.9626859849515627	-0.35334985594856094	0.0	0.9617279264668747	-0.22411827089464317	0.0	0.9673315219641007	-0.2919788807949873	0.0	0.8653040423522714	-0.38625554504175974	0.0	0.7414189184918846	-0.37486625416950553	0.0	0.6171802133952791	-0.32042134870583544	0.0	1.0544025494994764	-0.37934990239547106	0.0	1.1865176111171556	-0.35142090507630697	0.0	1.3082154197921343	-0.29855371561325506	0.0
16	0.5386666666666666	0.9770615621606759	-0.638667435483792	0.0	0.928640194789379	-0.6505188335397664	0.0	0.9286657363315916	-0.8563876722204068	0.0	0.9242752894977369	-1.0356271664842294	0.0	0.929435338784277	-1.0833113084071913	0.0	0.8976061901005935	-1.0775612250130466	0.0	0.9259452653728812	-1.0495003575154773	0.0	1.0225085265325689	-0.6474176916072923	0.0	1.0307738199861851	-0.8539879859904663	0.0	1.0392770746714597	-1.0348113376487966	0.0	1.0336015146307962	-1.0856664475767712	0.0	1.0675172070735341	-1.0776449754434811	0.0	1.0352428277958694	-1.0499322499826265	0.0	0.9627658841076249	-0.3533666351570452	0.0	0.9620905904316202	-0.22399174430190136	0.0	0.9670875269386011	-0.2928630704005921	0.0	0.8658341035744753	-0.3849294746885824	0.0	0.7425611736320209	-0.371279800709465	0.0	0.6221951336852896	-0.30857089380440184	0.0	1.053678279101094	-0.37867224998007276	0.0	1.1852561881836134	-0.3477518855027531	0.0	1.3032072645142485	-0.28573297123434743	0.0
17	0.5723333333333332	0.9763652714336579	-0.6375467364625048	0.0	0.9283460644158003	-0.6479694295227795	0.0	0.928416500684721	-0.8551151775565186	0.0	0.924423720016811	-1.036156066194278	0.0	0.9295465709936767	-1.083609840464636	0.0	0.8977725142333997	-1.0778413868240266	0.0	0.9267899102630357	-1.049271486444726	0.0	1.0221000664258457	-0.6447158972879186	0.0	1.0307444005822703	-0.852541750910506	0.0	1.039430728733259	-1.034852687314093	0.0	1.0321406670896565	-1.085729907309032	0.0	1.0663474926530485	-1.0777597816291076	0.0	1.0357867618392258	-1.0491583056754465	0.0	0.9629829570297774	-0.35301308329440306	0.0	0.9622072046037614	-0.22359896581211544	0.0	0.9666523536352875	-0.2938448615639263	0.0	0.8662146716795289	-0.3832940524631108	0.0	0.743982813037957	-0.3660100143300824	0.0	0.630795582059287	-0.29281768731462987	0.0	1.0531955087923803	-0.37746653943812825	0.0	1.1834439985782914	-0.3429092837674471	0.0	1.2944598597656274	-0.2695455860838397	0.0
18	0.606	0.9756636537039647	-0.6358177931436028	0.0	0.9282155157803442	-0.6449534585684623	0.0	0.9283568508262361	-0.8537734197942932	0.0	0.924807646702328	-1.0365245301003438	0.0	0.9295908483901444	-1.0839859039449165	0.0	0.8979239286806888	-1.0778129614054488	0.0	0.9275152817699538	-1.049319075130532	0.0	1.0215798490888053	-0.6414060994460151	0.0	1.0306759701659163	-0.8510611998921916	0.0	1.039569250272183	-1.0350041594384523	0.0	1.030751466519132	-1.0857160132556154	0.0	1.0649971108573755	-1.0777864763406166	0.0	1.0362719183924782	-1.0489448648293842	0.0	0.9633213310035965	-0.35239650893176394	0.0	0.9620835723402704	-0.2230710430818432	0.0	0.9662071336925485	-0.295088677046757	0.0	0.8666759213837714	-0.3814936381077712	0.0	0.7457911821680397	-0.3588577915066098	0.0	0.6434971213865243	-0.2737194971500208	0.0	1.052922391231606	-0.3758167671519521	0.0	1.1808499249454394	-0.3367810453539418	0.0	1.281146893600827	-0.2508732072613757	0.0
19	0.6396666666666666	0.9750715294973225	-0.6336342859234055	0.0	0.9283087628614353	-0.6417460290038774	0.0	0.9285629640184171	-0.8526611100176683	0.0	0.9253978331155615	-1.0369380391394143	0.0	0.9299671185868739	-1.0843741152736057	0.0	0.8982021331323818	-1.0775773732907754	0.0	0.9280370000812803	-1.0497633832641007	0.0	1.0209582905505987	-0.6379294521791714	0.0	1.0305438134154228	-0.8498256586852582	0.0	1.0397261198314838	-1.0353031849209384	0.0	1.0295986502147225	-1.0857998508936808	0.0	1.0635584142137189	-1.077808249299967	0.0	1.036721645419377	-1.0494756634708562	0.0	0.9637308167187765	-0.3518181397049963	0.0	0.9618253505089939	-0.22262453327478982	0.0	0.9658044031552068	-0.29671820474349625	0.0	0.867526918472382	-0.37967542628142176	0.0	0.7482599474938603	-0.34970238661108227	0.0	0.6603833659130178	-0.25224578836036654	0.0	1.0527202509477176	-0.37393650586240174	0.0	1.177223740089398	-0.32919830901804836	0.0	1.2630228130395826	-0.23077109775781363	0.0
20	0.6733333333333333	0.9746542323756641	-0.6313928918319311	0.0	0.9285898035684688	-0.6386534655737345	0.0	0.9289861742445603	-0.8518348746038771	0.0	0.9260873219732233	-1.0375462294148325	0.0	0.9308125047331212	-1.0846637127744283	0.0	0.8987036564366423	-1.0773386159406233	0.0	0.928335658869402	-1.0505527665440388	0.0	1.020286969319444	-0.6346996419928732	0.0	1.0303857557407774	-0.8489135371493565	0.0	1.0399109758112437	-1.0358074004892524	0.0	1.0286883903707063	-1.0859931795855933	0.0	1.062174066096982	-1.0778845621249444	0.0	1.0371376450171024	-1.0506180663094773	0.0	0.9640936648622591	-0.35156700308838934	0.0	0.9615390927453462	-0.2224036684679577	0.0	0.9654368721147384	-0.2986026763907242	0.0	0.8689917640444006	-0.3779693673719572	0.0	0.7518177325535174	-0.33865005415445315	0.0	0.6812962155387942	-0.22967500788505005	0.0	1.0523930499297482	-0.3721054245499688	0.0	1.1724003944026113	-0.3200158801606401	0.0	1.2404606416973087	-0.21029284912967183	0.0
21	0.707	0.9743848327655805	-0.6294826835782427	0.0	0.9289334937820982	-0.6359197463558104	0.0	0.9294704828302818	-0.8511552967867732	0.0	0.9266883035620185	-1.0383319783283917	0.0	0.9318671515507794	-1.08476800228233	0.0	0.8993974671977333	-1.0772611696392322	0.0	0.9283868688967587	-1.0514721593127379	0.0	1.0196565659005465	-0.6319509692563307	0.0	1.0303012525111275	-0.8482495341651816	0.0	1.0401001513768973	-1.0364864728416416	0.0	1.0280547034152747	-1.0861299229145007	0.0	1.0611152755125899	-1.0779588774975366	0.0	1.03748151490498	-1.0519636695073837	0.0	0.9642873828224787	-0.3517484523435784	0.0	0.9612759280779033	-0.22246440889523678	0.0	0.9651129968987324	-0.3004029131319986	0.0	0.8710989785882797	-0.3765070808881157	0.0	0.7569046332837567	-0.3261006936234827	0.0	0.7059468469166327	-0.20754029645183336	0.0	1.0517504435312728	-0.3705664037853436	0.0	1.1662245680603027	-0.3092649992790245	0.0	1.2143117100348824	-0.1904367094733861	0.0
22	0.7406666666666666	0.9741780954200661	-0.6281134717380822	0.0	0.9291709070949377	-0.6338024714552345	0.0	0.9298632415625998	-0.8505020746639249	0.0	0.927040529039838	-1.0391562725935615	0.0	0.9327556198603166	-1.0846641094139906	0.0	0.9001774691590247	-1.0774077361043586	0.0	0.9281946257807089	-1.0522501919346448	0.0	1.019178017772737	-0.6298626403069492	0.0	1.030373999666169	-0.8477423798186546	0.0	1.0402682513189159	-1.0371209392089578	0.0	1.0278143973481526	-1.086008008717238	0.0	1.060653877241995	-1.0778589858035286	0.0	1.0377087462632022	-1.0530317860002647	0.0	0.9642756999883583	-0.35226631447113643	0.0	0.9610265495348961	-0.2228627942937322	0.0	0.9648468007470491	-0.3018145434153101	0.0	0.8736628346570162	-0.37541035198135747	0.0	0.7638091611540769	-0.31266834552817513	0.0	0.733808708828909	-0.18742448218561963	0.0	1.0507242343934637	-0.3694396169404275	0.0	1.1585086771558522	-0.2973619051443423	0.0	1.1856389698045593	-0.17221335056309328	0.0
23	0.7743333333333333	0.9739328733544338	-0.6273600985386524	0.0	0.9291458043987596	-0.6326172406097713	0.0	0.9301038375666834	-0.849931157093155	0.0	0.9271055397283674	-1.0398636049156964	0.0	0.9333005483760927	-1.0843884836225146	0.0	0.9009542731823408	-1.077761811228962	0.0	0.927855110612799	-1.0527242184933479	0.0	1.0189274564893869	-0.62868327618149	0.0	1.0305837272753962	-0.847418277383871	0.0	1.0404035501209965	-1.0374278608468914	0.0	1.0280059263904568	-1.0855697185130833	0.0	1.0608265545696427	-1.0774813515035904	0.0	1.0377839758561958	-1.0535241725034783	0.0	0.9641216411739045	-0.35293975662383537	0.0	0.9607425928956774	-0.22365183569263378	0.0	0.9646173214900964	-0.30270108571315785	0.0	0.8763738452568632	-0.37471381266357223	0.0	0.7725307437038987	-0.2990749627906794	0.0	0.7639823958006914	-0.1706016695020689	0.0	1.0494021418835833	-0.3687326364247618	0.0	1.149213630333388	-0.28514268437772644	0.0	1.1555708215689402	-0.15659820510216274	0.0
